HIERARCHY
ROOT Root
{
  OFFSET 0.0 0.0 0.0
  CHANNELS 6 Xposition Yposition Zposition Zrotation Yrotation Xrotation
  JOINT Hips
  {
    OFFSET 0.0 100.0 0.0
    CHANNELS 6 Xposition Yposition Zposition Zrotation Yrotation Xrotation
    JOINT Spine1
    {
      OFFSET -0.013727 5.003763 -0.053727
      CHANNELS 3 Zrotation Yrotation Xrotation
      JOINT Spine2
      {
        OFFSET -0.0 7.125301 -0.029825
        CHANNELS 3 Zrotation Yrotation Xrotation
        JOINT Chest
        {
          OFFSET -1e-06 7.550063 -0.815971
          CHANNELS 3 Zrotation Yrotation Xrotation
          JOINT Neck1
          {
            OFFSET -0.181677 26.311295 -0.553348
            CHANNELS 3 Zrotation Yrotation Xrotation
            JOINT Neck2
            {
              OFFSET -3e-06 7.709397 2.302585
              CHANNELS 3 Zrotation Yrotation Xrotation
              JOINT Head
              {
                OFFSET -5e-06 6.128916 1.953709
                CHANNELS 3 Zrotation Yrotation Xrotation
                JOINT HeadEnd
                {
                  OFFSET 0.003598 16.065403 -1.835379
                  CHANNELS 3 Zrotation Yrotation Xrotation
                }
                JOINT Jaw
                {
                  OFFSET 0.002637 0.475592 3.094941
                  CHANNELS 3 Zrotation Yrotation Xrotation
                }
                JOINT LeftEye
                {
                  OFFSET 3.206381 5.380205 7.586883
                  CHANNELS 3 Zrotation Yrotation Xrotation
                }
                JOINT RightEye
                {
                  OFFSET -3.22244 5.361869 7.558234
                  CHANNELS 3 Zrotation Yrotation Xrotation
                }
              }
            }
          }
          JOINT LeftShoulder
          {
            OFFSET 1.621652 23.237164 5.113413
            CHANNELS 3 Zrotation Yrotation Xrotation
            JOINT LeftArm
            {
              OFFSET 14.919846 2e-06 -5.502326
              CHANNELS 3 Zrotation Yrotation Xrotation
              JOINT LeftForeArm
              {
                OFFSET 28.739307 0.0 -0.002588
                CHANNELS 3 Zrotation Yrotation Xrotation
                JOINT LeftHand
                {
                  OFFSET 27.093981 -1e-06 0.002609
                  CHANNELS 3 Zrotation Yrotation Xrotation
                  JOINT LeftHandThumb1
                  {
                    OFFSET 2.276482 -1.392045 3.191413
                    CHANNELS 3 Zrotation Yrotation Xrotation
                    JOINT LeftHandThumb2
                    {
                      OFFSET 4.012836 -1.828127 1.641654
                      CHANNELS 3 Zrotation Yrotation Xrotation
                      JOINT LeftHandThumb3
                      {
                        OFFSET 2.798515 0.0 -3e-06
                        CHANNELS 3 Zrotation Yrotation Xrotation
                        JOINT LeftHandThumbEnd
                        {
                          OFFSET 3.180793 -4e-06 4e-06
                          CHANNELS 3 Zrotation Yrotation Xrotation
                        }
                      }
                    }
                  }
                  JOINT LeftHandIndex1
                  {
                    OFFSET 3.247555 -0.531998 2.296169
                    CHANNELS 3 Zrotation Yrotation Xrotation
                    JOINT LeftHandIndex2
                    {
                      OFFSET 6.364578 0.01206 0.1786
                      CHANNELS 3 Zrotation Yrotation Xrotation
                      JOINT LeftHandIndex3
                      {
                        OFFSET 3.662364 0.0 0.0
                        CHANNELS 3 Zrotation Yrotation Xrotation
                        JOINT LeftHandIndex4
                        {
                          OFFSET 2.329242 4e-06 4e-06
                          CHANNELS 3 Zrotation Yrotation Xrotation
                          JOINT LeftHandIndexEnd
                          {
                            OFFSET 2.759615 -0.180537 -0.113024
                            CHANNELS 3 Zrotation Yrotation Xrotation
                          }
                        }
                      }
                    }
                  }
                  JOINT LeftHandMiddle1
                  {
                    OFFSET 3.163495 0.240981 1.000332
                    CHANNELS 3 Zrotation Yrotation Xrotation
                    JOINT LeftHandMiddle2
                    {
                      OFFSET 6.19078 -0.259278 -1.002548
                      CHANNELS 3 Zrotation Yrotation Xrotation
                      JOINT LeftHandMiddle3
                      {
                        OFFSET 4.35652 -4e-06 -1e-06
                        CHANNELS 3 Zrotation Yrotation Xrotation
                        JOINT LeftHandMiddle4
                        {
                          OFFSET 2.996877 -8e-06 0.0
                          CHANNELS 3 Zrotation Yrotation Xrotation
                          JOINT LeftHandMiddleEnd
                          {
                            OFFSET 2.304287 -0.294569 -0.031741
                            CHANNELS 3 Zrotation Yrotation Xrotation
                          }
                        }
                      }
                    }
                  }
                  JOINT LeftHandRing1
                  {
                    OFFSET 2.882643 -0.053652 -0.322543
                    CHANNELS 3 Zrotation Yrotation Xrotation
                    JOINT LeftHandRing2
                    {
                      OFFSET 5.854541 -0.486202 -1.373841
                      CHANNELS 3 Zrotation Yrotation Xrotation
                      JOINT LeftHandRing3
                      {
                        OFFSET 4.350578 0.0 3e-06
                        CHANNELS 3 Zrotation Yrotation Xrotation
                        JOINT LeftHandRing4
                        {
                          OFFSET 2.651321 7e-06 2e-06
                          CHANNELS 3 Zrotation Yrotation Xrotation
                          JOINT LeftHandRingEnd
                          {
                            OFFSET 1.936105 0.077687 -7.1e-05
                            CHANNELS 3 Zrotation Yrotation Xrotation
                          }
                        }
                      }
                    }
                  }
                  JOINT LeftHandPinky1
                  {
                    OFFSET 2.8655 -0.310005 -1.600378
                    CHANNELS 3 Zrotation Yrotation Xrotation
                    JOINT LeftHandPinky2
                    {
                      OFFSET 5.087849 -1.331141 -1.77123
                      CHANNELS 3 Zrotation Yrotation Xrotation
                      JOINT LeftHandPinky3
                      {
                        OFFSET 3.070974 4e-06 0.0
                        CHANNELS 3 Zrotation Yrotation Xrotation
                        JOINT LeftHandPinky4
                        {
                          OFFSET 1.549672 0.0 1e-06
                          CHANNELS 3 Zrotation Yrotation Xrotation
                          JOINT LeftHandPinkyEnd
                          {
                            OFFSET 1.944893 -0.157802 0.057219
                            CHANNELS 3 Zrotation Yrotation Xrotation
                          }
                        }
                      }
                    }
                  }
                }
              }
            }
          }
          JOINT RightShoulder
          {
            OFFSET -1.380118 23.180309 5.214158
            CHANNELS 3 Zrotation Yrotation Xrotation
            JOINT RightArm
            {
              OFFSET -15.037196 1.2e-05 -5.545604
              CHANNELS 3 Zrotation Yrotation Xrotation
              JOINT RightForeArm
              {
                OFFSET -28.736639 2e-06 -0.002597
                CHANNELS 3 Zrotation Yrotation Xrotation
                JOINT RightHand
                {
                  OFFSET -27.133619 -0.0 0.002613
                  CHANNELS 3 Zrotation Yrotation Xrotation
                  JOINT RightHandThumb1
                  {
                    OFFSET -2.274032 -1.383988 3.163127
                    CHANNELS 3 Zrotation Yrotation Xrotation
                    JOINT RightHandThumb2
                    {
                      OFFSET -4.011429 -1.827466 1.640914
                      CHANNELS 3 Zrotation Yrotation Xrotation
                      JOINT RightHandThumb3
                      {
                        OFFSET -2.794935 -4e-06 -3e-06
                        CHANNELS 3 Zrotation Yrotation Xrotation
                        JOINT RightHandThumbEnd
                        {
                          OFFSET -3.183852 4e-06 1e-06
                          CHANNELS 3 Zrotation Yrotation Xrotation
                        }
                      }
                    }
                  }
                  JOINT RightHandIndex1
                  {
                    OFFSET -3.253266 -0.520057 2.282866
                    CHANNELS 3 Zrotation Yrotation Xrotation
                    JOINT RightHandIndex2
                    {
                      OFFSET -6.341917 0.012471 0.178266
                      CHANNELS 3 Zrotation Yrotation Xrotation
                      JOINT RightHandIndex3
                      {
                        OFFSET -3.654871 -8e-06 -0.0
                        CHANNELS 3 Zrotation Yrotation Xrotation
                        JOINT RightHandIndex4
                        {
                          OFFSET -2.327586 0.0 1e-06
                          CHANNELS 3 Zrotation Yrotation Xrotation
                          JOINT RightHandIndexEnd
                          {
                            OFFSET -2.76179 -0.180656 -0.113078
                            CHANNELS 3 Zrotation Yrotation Xrotation
                          }
                        }
                      }
                    }
                  }
                  JOINT RightHandMiddle1
                  {
                    OFFSET -3.168106 0.246593 1.00103
                    CHANNELS 3 Zrotation Yrotation Xrotation
                    JOINT RightHandMiddle2
                    {
                      OFFSET -6.180828 -0.258836 -1.000895
                      CHANNELS 3 Zrotation Yrotation Xrotation
                      JOINT RightHandMiddle3
                      {
                        OFFSET -4.348901 0.0 -0.0
                        CHANNELS 3 Zrotation Yrotation Xrotation
                        JOINT RightHandMiddle4
                        {
                          OFFSET -3.00024 -4e-06 -2e-06
                          CHANNELS 3 Zrotation Yrotation Xrotation
                          JOINT RightHandMiddleEnd
                          {
                            OFFSET -2.30252 -0.29437 -0.031706
                            CHANNELS 3 Zrotation Yrotation Xrotation
                          }
                        }
                      }
                    }
                  }
                  JOINT RightHandRing1
                  {
                    OFFSET -2.88569 -0.067952 -0.308858
                    CHANNELS 3 Zrotation Yrotation Xrotation
                    JOINT RightHandRing2
                    {
                      OFFSET -5.854198 -0.48613 -1.373731
                      CHANNELS 3 Zrotation Yrotation Xrotation
                      JOINT RightHandRing3
                      {
                        OFFSET -4.33881 -4e-06 -0.0
                        CHANNELS 3 Zrotation Yrotation Xrotation
                        JOINT RightHandRing4
                        {
                          OFFSET -2.654903 -4e-06 4e-06
                          CHANNELS 3 Zrotation Yrotation Xrotation
                          JOINT RightHandRingEnd
                          {
                            OFFSET -1.933568 0.077527 -5.2e-05
                            CHANNELS 3 Zrotation Yrotation Xrotation
                          }
                        }
                      }
                    }
                  }
                  JOINT RightHandPinky1
                  {
                    OFFSET -2.866425 -0.342796 -1.584145
                    CHANNELS 3 Zrotation Yrotation Xrotation
                    JOINT RightHandPinky2
                    {
                      OFFSET -5.091371 -1.332055 -1.772385
                      CHANNELS 3 Zrotation Yrotation Xrotation
                      JOINT RightHandPinky3
                      {
                        OFFSET -3.062664 -4e-06 1e-06
                        CHANNELS 3 Zrotation Yrotation Xrotation
                        JOINT RightHandPinky4
                        {
                          OFFSET -1.546529 4e-06 -2e-06
                          CHANNELS 3 Zrotation Yrotation Xrotation
                          JOINT RightHandPinkyEnd
                          {
                            OFFSET -1.945119 -0.157718 0.057211
                            CHANNELS 3 Zrotation Yrotation Xrotation
                          }
                        }
                      }
                    }
                  }
                }
              }
            }
          }
        }
      }
    }
    JOINT LeftLeg
    {
      OFFSET 10.043214 -8.434526 2.595655
      CHANNELS 3 Zrotation Yrotation Xrotation
      JOINT LeftShin
      {
        OFFSET -1e-06 -43.221752 -0.802913
        CHANNELS 3 Zrotation Yrotation Xrotation
        JOINT LeftFoot
        {
          OFFSET 1e-06 -42.155094 -3.481523
          CHANNELS 3 Zrotation Yrotation Xrotation
          JOINT LeftToeBase
          {
            OFFSET 0.0 -5.059472 13.231529
            CHANNELS 3 Zrotation Yrotation Xrotation
            JOINT LeftToeEnd
            {
              OFFSET -0.009607 -1.647619 6.513017
              CHANNELS 3 Zrotation Yrotation Xrotation
            }
          }
        }
      }
    }
    JOINT RightLeg
    {
      OFFSET -10.047278 -8.29526 2.620317
      CHANNELS 3 Zrotation Yrotation Xrotation
      JOINT RightShin
      {
        OFFSET 1e-06 -43.362206 -0.805556
        CHANNELS 3 Zrotation Yrotation Xrotation
        JOINT RightFoot
        {
          OFFSET 2e-06 -42.117393 -3.478398
          CHANNELS 3 Zrotation Yrotation Xrotation
          JOINT RightToeBase
          {
            OFFSET -0.0 -5.079609 13.284196
            CHANNELS 3 Zrotation Yrotation Xrotation
            JOINT RightToeEnd
            {
              OFFSET 0.009532 -1.634378 6.460591
              CHANNELS 3 Zrotation Yrotation Xrotation
            }
          }
        }
      }
    }
  }
}
MOTION
Frames: 4
Frame Time: 0.03333333333333333
0.0 0.0 0.0 0.0 -0.0 0.0 -1.324039 101.179817 -173.770599 -1.021445 2.097464 -0.773186 -0.572538 -0.062614 0.047521 -0.34688 1.474415 -4.592192 1.459549 -0.274079 7.891609 -0.663331 2.705651 5.670995 -0.728951 -1.001091 -3.459739 0.689921 -2.101495 -12.438706 7.7e-05 -2.2e-05 6e-06 0.022774 -0.02872 0.091631 0.639877 -3.773026 -10.471007 -0.597886 3.713326 -10.485785 -16.801077 -1.857298 9.704453 -55.990311 12.57412 -0.89774 0.540289 -31.469872 -0.06192 3.597451 1.868292 -20.58695 -5.882103 9.861282 0.702591 -10.936867 -0.360575 7.156204 1e-06 8.774822 -1e-06 -15.420264 17.832396 6.35476 -1.844032 2.498503 -2.507277 -10.163595 4.678943 4.621108 -20.976015 -4e-06 3e-06 -21.22628 2.451695 -3.593999 -0.0 -5e-06 -1e-06 -1.36268 2.240797 -0.746323 -21.334904 0.584908 3.008322 -13.821208 -4e-06 3e-06 -23.887157 -0.249079 -0.839481 -60.080078 2.450805 -1.124115 -0.294024 1.679687 0.833256 -14.218202 0.093214 1.300581 -34.212036 -0.287565 0.967173 -20.033209 0.964536 1.212845 1e-06 0.0 0.0 -3.440387 0.788234 0.501656 -15.928183 -3.16731 2.999707 -6.338824 -1e-06 2e-06 -18.12344 3.648182 -4.905668 -3e-06 -0.0 -2e-06 13.389059 13.9205 11.657979 62.358543 13.898625 13.947525 0.751031 23.335039 0.2075 -3.584006 3.749815 -2.655034 2.243544 -5.255038 -3.180159 14.282896 -0.826594 6.952507 -3e-06 -12.690609 0.0 15.988832 -17.777769 2.865088 1.665667 -1.955922 -2.878301 4.7278 -4.170589 4.993927 11.020534 3e-06 -2e-06 12.109058 -3.735717 -2.866787 -0.0 -0.0 1e-06 1.291986 -1.92855 -1.498089 14.800136 0.567467 3.86561 14.24258 -1.341737 -6.660662 19.631981 0.143927 -0.648248 49.621132 -0.626209 -6.114833 0.353029 -1.511151 -0.031942 20.222803 3.684311 2.316628 18.787287 6e-06 -2e-06 10.751635 -0.479869 1.397905 1e-06 2e-06 -1e-06 3.273809 0.305947 -0.580112 21.486824 11.830379 2.266132 8.162931 2e-06 -1e-06 18.399092 -3.798986 -4.940577 3e-06 1e-06 -1e-06 0.130298 12.102164 -0.005085 -0.101528 0.159471 3.099872 -0.62098 0.603105 -1.021474 1.646891 -1.826141 1.16244 -0.0 -0.0 2e-06 -0.885771 -8.771493 2.416464 -0.146699 -0.174408 33.562424 8.926122 -2.234861 7.821476 -1.415922 0.9126 -2.519959 -0.0 0.0 -5e-06 
0.0 0.0 0.0 0.0 -0.0 0.0 -1.566633 100.938545 -175.560226 0.238469 1.496109 -0.480365 -0.954484 0.081037 -0.448616 -0.432232 1.883013 -4.793415 0.680167 0.147064 7.812385 -1.256089 2.903428 5.782152 -0.786154 -1.071254 -3.426556 1.003655 -2.609213 -11.845035 7.7e-05 -2.2e-05 6e-06 0.024521 -0.00531 0.094194 0.629041 -3.748508 -10.439639 -0.584875 3.733864 -10.449403 -17.71945 -1.407602 9.289927 -55.247883 13.344999 -2.108089 0.626835 -32.473106 -0.112885 3.182791 1.92173 -19.858967 -5.882107 9.861288 0.70259 -10.936872 -0.360576 7.156204 1e-06 8.774828 -1e-06 -15.401772 17.84396 6.279015 -1.844033 2.498505 -2.507277 -10.1636 4.678945 4.621108 -20.976025 -5e-06 1e-06 -21.226288 2.451696 -3.594 -0.0 -6e-06 -1e-06 -1.362682 2.240799 -0.746323 -21.334917 0.584907 3.008323 -13.821215 -4e-06 2e-06 -23.887175 -0.249081 -0.839482 -60.003063 2.461913 -1.247207 -0.294025 1.679688 0.833256 -14.21821 0.093214 1.300579 -34.212051 -0.287568 0.96717 -20.033215 0.964535 1.212844 2e-06 0.0 0.0 -3.440389 0.788233 0.501656 -15.928189 -3.167312 2.999706 -6.338827 -1e-06 0.0 -18.123447 3.648182 -4.905671 -3e-06 0.0 -1e-06 13.221 14.059498 11.856749 62.595787 14.151949 15.235027 0.712211 23.555531 0.215122 -3.699637 3.631293 -2.879546 2.243542 -5.255037 -3.180159 14.282894 -0.826596 6.952504 -1e-06 -12.690603 1e-06 16.035725 -17.76231 2.813762 1.665666 -1.955922 -2.8783 4.727798 -4.170588 4.993925 11.020527 2e-06 -2e-06 12.109053 -3.735716 -2.866786 -0.0 0.0 -0.0 1.291985 -1.928549 -1.498092 14.800129 0.567466 3.865605 14.242575 -1.341735 -6.66066 19.631968 0.143925 -0.648248 49.539303 -0.693233 -6.212866 0.353029 -1.511151 -0.03194 20.222795 3.684308 2.31663 18.787275 4e-06 -2e-06 10.751629 -0.479868 1.397904 1e-06 2e-06 1e-06 3.273808 0.305947 -0.58011 21.486816 11.830373 2.266133 8.162928 0.0 -4e-06 18.399088 -3.798983 -4.940578 4e-06 -0.0 -1e-06 -1.452232 12.020515 -1.188191 -0.087624 0.249666 2.692472 -0.3539 1.169978 -0.352691 1.639299 -1.797314 1.124145 0.0 -1e-06 2e-06 -1.799101 -8.317211 6.966528 -0.16791 -0.107163 25.633923 8.561722 -2.468115 6.694421 -1.419635 0.872535 -4.020092 -0.0 0.0 -4e-06 
0.0 0.0 0.0 0.0 -0.0 0.0 -1.895107 100.649834 -177.482788 1.667501 0.962732 0.106781 -1.399179 0.210349 -0.937614 -0.51066 2.298109 -4.974586 -0.1848 0.564109 7.718174 -2.046947 3.166072 5.461866 -0.806568 -1.144153 -3.429665 1.286013 -3.087591 -11.374977 7.7e-05 -2.2e-05 6e-06 0.022261 0.009572 0.098361 0.623103 -3.732758 -10.431574 -0.585292 3.747956 -10.434399 -18.832016 -1.134102 8.801138 -54.398064 13.720261 -3.466364 0.681058 -33.476189 -0.119216 2.922961 2.04895 -19.168352 -5.882111 9.861288 0.70259 -10.936878 -0.360574 7.156209 0.0 8.774826 -1e-06 -15.436113 17.874226 6.212819 -1.844035 2.498506 -2.507278 -10.163609 4.678946 4.621109 -20.97604 -2e-06 1e-06 -21.226301 2.451697 -3.594002 -0.0 -6e-06 -0.0 -1.362684 2.240798 -0.746324 -21.334929 0.584911 3.008323 -13.821222 -1e-06 1e-06 -23.887184 -0.249077 -0.839484 -59.956711 2.47087 -1.393259 -0.294025 1.679687 0.833256 -14.218219 0.093216 1.300582 -34.212074 -0.28756 0.967169 -20.03323 0.964539 1.212842 1e-06 0.0 -0.0 -3.44039 0.788234 0.501656 -15.928201 -3.167308 2.999708 -6.338831 1e-06 0.0 -18.123463 3.648183 -4.905674 -3e-06 1e-06 -0.0 12.932055 14.24368 12.012723 62.948383 14.542351 16.531904 0.620319 23.751705 0.175523 -3.846975 3.46258 -3.249876 2.243543 -5.255042 -3.180159 14.2829 -0.826596 6.952505 -3e-06 -12.690614 -1e-06 16.06941 -17.708735 2.767094 1.665668 -1.955924 -2.878301 4.727802 -4.170589 4.993927 11.020535 2e-06 -2e-06 12.109062 -3.735718 -2.866785 -0.0 0.0 -0.0 1.291985 -1.92855 -1.498092 14.800138 0.567469 3.865607 14.242582 -1.341736 -6.660665 19.631985 0.143927 -0.648249 49.420624 -0.694544 -6.290714 0.353029 -1.51115 -0.031939 20.222803 3.684313 2.316631 18.787287 7e-06 -1e-06 10.751636 -0.479868 1.397907 0.0 2e-06 0.0 3.273809 0.305946 -0.580111 21.48683 11.830384 2.266132 8.162934 2e-06 -4e-06 18.399099 -3.798985 -4.940581 3e-06 1e-06 -1e-06 -3.236714 12.024739 -2.782864 -0.060118 0.326144 2.211512 -0.153312 1.582287 0.470481 1.614826 -1.773977 1.001981 0.0 -1e-06 2e-06 -2.78312 -7.876362 10.272374 -0.134962 -0.074212 17.28447 6.805456 -3.460084 4.319992 -1.443405 0.834687 -7.049607 0.0 -0.0 -1e-06 
0.0 0.0 0.0 0.0 -0.0 0.0 -2.279455 100.394699 -179.652924 2.923552 0.708669 0.947653 -1.617068 0.180368 -1.299357 -0.559302 2.627164 -5.13117 -0.999596 1.011891 7.680567 -3.122114 3.51952 4.648539 -0.950088 -1.249092 -3.464561 1.590442 -3.591557 -11.064047 7.7e-05 -2.2e-05 6e-06 0.027889 0.040903 0.086237 0.633029 -3.710839 -10.471199 -0.585121 3.791529 -10.484513 -20.236788 -1.179526 8.147377 -53.415722 13.607037 -4.949364 0.677008 -34.210136 -0.120459 2.84246 2.281796 -18.68038 -5.882111 9.86129 0.70259 -10.93688 -0.360574 7.156209 0.0 8.774828 -0.0 -15.34481 18.023811 6.254086 -1.844036 2.498507 -2.507278 -10.16361 4.678948 4.621111 -20.97604 -1e-06 -0.0 -21.226309 2.451698 -3.594005 2e-06 -6e-06 1e-06 -1.362683 2.2408 -0.746323 -21.33493 0.584911 3.008322 -13.821223 -2e-06 1e-06 -23.887188 -0.249079 -0.839485 -59.800129 2.420801 -1.557728 -0.294024 1.679688 0.833257 -14.21822 0.093215 1.300581 -34.212074 -0.287562 0.967169 -20.033232 0.964538 1.212843 1e-06 1e-06 -0.0 -3.44039 0.788234 0.501656 -15.928198 -3.16731 2.999707 -6.33883 -1e-06 0.0 -18.123459 3.648185 -4.905674 -3e-06 1e-06 -0.0 12.50596 14.514762 11.927334 63.258732 14.874549 17.948847 0.459181 24.087706 0.095816 -4.019047 3.254476 -3.821917 2.24354 -5.255033 -3.180157 14.28289 -0.826591 6.952504 -5e-06 -12.690601 -1e-06 16.003063 -17.687645 2.841142 1.665666 -1.955922 -2.878298 4.727799 -4.170584 4.993925 11.020526 4e-06 0.0 12.109052 -3.735713 -2.866781 1e-06 -0.0 1e-06 1.291985 -1.928549 -1.498088 14.800129 0.567469 3.865607 14.242568 -1.341734 -6.660655 19.631962 0.143926 -0.648243 49.689617 -0.729354 -6.252144 0.353027 -1.511149 -0.03194 20.222792 3.684311 2.316634 18.787271 8e-06 3e-06 10.751629 -0.479867 1.397909 1e-06 1e-06 -0.0 3.273806 0.305946 -0.580112 21.486818 11.830377 2.266137 8.162928 2e-06 0.0 18.399084 -3.798982 -4.940573 3e-06 -0.0 -0.0 -4.877793 12.045648 -4.95293 0.01125 0.399557 1.934512 -0.138099 1.595887 1.585101 1.596154 -1.78946 0.746405 0.0 -0.0 2e-06 -3.52459 -7.664743 11.246163 -0.063256 -0.048108 11.086552 4.606137 -4.652537 0.132776 -1.475882 0.921036 -7.439888 -0.0 -0.0 -2e-06 
